<svg xmlns="http://www.w3.org/2000/svg" viewBox="0 0 124.9 64"><defs><clipPath id="a" clipPathUnits="userSpaceOnUse"><path d="M0 1045.151h1700.79V0H0v1045.151z"/></clipPath><clipPath id="b" clipPathUnits="userSpaceOnUse"><path d="M0 1045.151h1700.79V0H0v1045.151z"/></clipPath></defs><g clip-path="url(#a)" transform="matrix(.1244 0 0 -.12019 -43.338 94.868)"><path d="M1340.106 691.06c-119.21 52.051-293.616 80.717-487.953 80.717S483.41 743.111 364.197 691.06V351.073c119.213-52.056 293.62-80.719 487.956-80.719 194.337 0 368.742 28.663 487.953 80.72V691.06z" fill="#fff"/><path d="M379.276 676.323c116.575 46.98 283.766 82.274 471.12 82.274 187.356 0 354.551-35.294 471.121-82.274V368.54c-116.557-46.982-283.748-80.95-471.12-80.95-187.37 0-354.562 33.968-471.12 80.95v307.783zm963.728 24.42c-120.738 51.052-295.684 88.604-492.608 88.604-196.922 0-371.869-37.552-492.608-88.605l-9.407-3.978V348.096l9.407-3.977c120.724-51.057 295.67-87.28 492.608-87.28 196.942 0 371.882 36.223 492.608 87.28l9.404 3.977v348.668l-9.404 3.978z" fill="#ee3124"/><path d="M561.919 579.797h29.084c34.11 0 57.019-22.928 57.019-57.61 0-33.767-22.908-56.427-57.02-56.427H561.92v114.037zm29.084 56.224h-89.856V409.525h89.856c69.494 0 119.933 47.633 119.933 113.864 0 65.256-50.44 112.632-119.933 112.632M884.273 519.023L795.24 636.022h-53.605V409.525h60.158v121.264l92.398-121.264h50.257v226.497h-60.175v-117zM1095.01 461.751c-33.7 0-61.013 27.327-61.013 61.021 0 33.717 27.314 61.027 61.013 61.027 33.688 0 61.005-27.31 61.005-61.027 0-33.694-27.317-61.021-61.005-61.021m.309 177.922c-67.42 0-120.22-51.354-120.22-117.485 0-66.313 51.409-116.301 119.608-116.301 67.408 0 120.22 51.342 120.22 117.502 0 66.297-51.426 116.284-119.608 116.284" fill="#005288"/></g><path d="M46.021 50.811h3.434v.703h-2.62v1.163h2.322v.704h-2.322v1.202h2.653v.704h-3.467V50.81z" fill="#ee3124"/><g clip-path="url(#b)" transform="matrix(.1244 0 0 -.12019 -43.338 94.868)"><path d="M754.623 334.77l3.935 4.678c3.564-3.082 7.182-4.84 11.756-4.84 4.043 0 6.596 1.919 6.596 4.685v.1c0 2.66-1.492 4.102-8.404 5.694-7.927 1.916-12.394 4.256-12.394 11.118v.105c0 6.383 5.319 10.8 12.711 10.8 5.427 0 9.735-1.651 13.51-4.68l-3.509-4.944c-3.35 2.494-6.701 3.822-10.107 3.822-3.828 0-6.063-1.963-6.063-4.41v-.11c0-2.87 1.702-4.15 8.885-5.853 7.87-1.911 11.912-4.733 11.912-10.897v-.108c0-6.97-5.478-11.122-13.299-11.122-5.691 0-11.062 1.977-15.529 5.963M801 360.512h-11.806v6.065h30.212v-6.065h-11.81v-31.173H801v31.173zM837.404 348.382h19.815v-6.328h-19.815v6.328zM881.321 360.195l-6.704-1.864-1.38 5.318 10.054 3.192h4.523V329.34h-6.493v30.856zM920.645 354.612v.103c0 3.882-3.03 6.86-7.77 6.86-4.624 0-7.39-3.083-7.39-6.912v-.113c0-3.876 2.974-6.646 7.604-6.646 4.735 0 7.556 3.087 7.556 6.708m.262-8.193c-2.071-2.503-4.947-3.994-8.781-3.994-7.921 0-13.191 4.628-13.191 11.817v.098c0 7.291 5.645 12.875 13.892 12.875 4.678 0 7.713-1.332 10.366-3.94 2.71-2.764 4.469-6.862 4.469-14.202v-.1c0-11.973-5.904-20.264-15.957-20.264-5.156 0-8.773 1.854-11.914 4.464l3.566 5.002c2.817-2.342 5.316-3.513 8.512-3.513 6.594 0 8.983 6.81 9.038 11.757M952.442 360.827h-18.72v5.75h26.171v-4.946l-16.749-32.292h-7.405l16.703 31.488zM974.742 360.195l-6.7-1.864-1.386 5.318 10.052 3.192h4.523V329.34h-6.489v30.856z" fill="#ee3124"/></g></svg>