<svg id="mail" xmlns="http://www.w3.org/2000/svg" width="18.625" height="12.671" viewBox="0 0 18.625 12.671">
  <path id="Path_5189" data-name="Path 5189" d="M43.027,68.673,37,73.988l-6.033-5.315a.579.579,0,1,0-.766.87l6.416,5.652a.58.58,0,0,0,.766,0l6.414-5.652a.579.579,0,1,0-.766-.869Z" transform="translate(-27.683 -66.21)"/>
  <path id="Path_5190" data-name="Path 5190" d="M16.886,38.529H1.738A1.74,1.74,0,0,0,0,40.267v9.194A1.74,1.74,0,0,0,1.738,51.2H16.886a1.74,1.74,0,0,0,1.738-1.738V40.267A1.74,1.74,0,0,0,16.886,38.529Zm.579,10.933a.58.58,0,0,1-.579.579H1.738a.58.58,0,0,1-.579-.579V40.267a.58.58,0,0,1,.579-.579H16.886a.58.58,0,0,1,.579.579Z" transform="translate(0 -38.529)"/>
</svg>
