<svg id="phone-call" xmlns="http://www.w3.org/2000/svg" width="15.894" height="16.351" viewBox="0 0 15.894 16.351">
  <path id="Path_5191" data-name="Path 5191" d="M112.268,2.142A7.265,7.265,0,0,0,107.1,0a.579.579,0,1,0,0,1.159,6.154,6.154,0,0,1,6.154,6.154.579.579,0,0,0,1.159,0A7.265,7.265,0,0,0,112.268,2.142Z" transform="translate(-98.515)"/>
  <path id="Path_5192" data-name="Path 5192" d="M109.884,47.524a.579.579,0,0,0,1.159,0,3.951,3.951,0,0,0-3.946-3.946h0a.579.579,0,0,0,0,1.159A2.791,2.791,0,0,1,109.884,47.524Z" transform="translate(-98.515 -40.211)"/>
  <path id="Path_5193" data-name="Path 5193" d="M13.036,39.644a1.749,1.749,0,0,0-1.549.927.579.579,0,0,0,.957.654c.255-.373.37-.431.527-.424a7.464,7.464,0,0,1,2.674,1.959.6.6,0,0,1-.005.423,2,2,0,0,1-.993,1.251,1.859,1.859,0,0,1-1.489-.05,16.377,16.377,0,0,1-5.372-3.5l0,0a16.374,16.374,0,0,1-3.491-5.365,1.86,1.86,0,0,1-.05-1.49,2,2,0,0,1,1.25-.993.6.6,0,0,1,.422-.006A7.478,7.478,0,0,1,7.874,35.7c.008.163-.051.278-.423.532a.579.579,0,0,0,.654.957,1.748,1.748,0,0,0,.927-1.551A7.094,7.094,0,0,0,6.32,31.945a1.752,1.752,0,0,0-1.2-.007,3.119,3.119,0,0,0-1.934,1.608,2.983,2.983,0,0,0,.031,2.41A17.527,17.527,0,0,0,6.965,41.7l.012.012a17.531,17.531,0,0,0,5.743,3.74,3.438,3.438,0,0,0,1.294.27,2.656,2.656,0,0,0,1.116-.239,3.119,3.119,0,0,0,1.608-1.935,1.752,1.752,0,0,0-.006-1.194A7.091,7.091,0,0,0,13.036,39.644Z" transform="translate(-2.949 -29.376)"/>
</svg>
